# xmcd
# 
# Track frame offsets:
#     150
#     21307
#     46960
#     71072
#     86457
#     114542
#     140732
#     155575
#     185945
#     203785
# 
# Disc length: 3056
# 
# Revision: 2
# Processed by: cddbd v1.5.2PL0 Copyright (c) Steve Scherf et al.
# Submitted via: fre:ac v1.0.31
# 
DISCID=940bee0a
DTITLE=Various Artist - ASCD115-Nhung Mua Thu Qua Tren Cuoc Tinh Toi
DYEAR=1998
DGENRE=Vietnamese
TTITLE0=LNT, Duy Linh, Le Tam, Do Giang - Mua Thu trong mua
TTITLE1=Khanh Ly - Nuoc mat mua Thu
TTITLE2=Tuan Ngoc - Thu quyen ru
TTITLE3=Thanh Lan - Thu vang
TTITLE4=Vu Khanh - La do muon chieu
TTITLE5=Ninh Cat Loan Chau - Nhung Mua Thu Qua Tren Cuoc Tinh Toi
TTITLE6=Duy Linh - Chuyen tinh mua Thu
TTITLE7=Khanh Ly - Con Thuyen khong ben
TTITLE8=Manh Dinh - Hoai Thu
TTITLE9=Viet Dzung - Thu hat cho nguoi
EXTD=
EXTT0=
EXTT1=
EXTT2=
EXTT3=
EXTT4=
EXTT5=
EXTT6=
EXTT7=
EXTT8=
EXTT9=
PLAYORDER=
